solid CATIA STL
  facet normal  -0.000000e+00  0.000000e+00  1.000000e+00
    outer loop
      vertex  5.890000e+01  1.299000e+02  1.980000e+00
      vertex  1.000000e+00  1.299000e+02  1.980000e+00
      vertex  5.909509e+01  1.298808e+02  1.980000e+00
    endloop
  endfacet
  facet normal  0.000000e+00  0.000000e+00  1.000000e+00
    outer loop
      vertex  5.909509e+01  1.298808e+02  1.980000e+00
      vertex  1.000000e+00  1.299000e+02  1.980000e+00
      vertex  8.049097e-01  1.298808e+02  1.980000e+00
    endloop
  endfacet
  facet normal  -0.000000e+00  0.000000e+00  1.000000e+00
    outer loop
      vertex  5.909509e+01  1.298808e+02  1.980000e+00
      vertex  8.049097e-01  1.298808e+02  1.980000e+00
      vertex  5.928268e+01  1.298239e+02  1.980000e+00
    endloop
  endfacet
  facet normal  0.000000e+00  0.000000e+00  1.000000e+00
    outer loop
      vertex  5.928268e+01  1.298239e+02  1.980000e+00
      vertex  8.049097e-01  1.298808e+02  1.980000e+00
      vertex  6.173165e-01  1.298239e+02  1.980000e+00
    endloop
  endfacet
  facet normal  -0.000000e+00  0.000000e+00  1.000000e+00
    outer loop
      vertex  5.928268e+01  1.298239e+02  1.980000e+00
      vertex  6.173165e-01  1.298239e+02  1.980000e+00
      vertex  5.945557e+01  1.297315e+02  1.980000e+00
    endloop
  endfacet
  facet normal  0.000000e+00  0.000000e+00  1.000000e+00
    outer loop
      vertex  5.945557e+01  1.297315e+02  1.980000e+00
      vertex  6.173165e-01  1.298239e+02  1.980000e+00
      vertex  4.444298e-01  1.297315e+02  1.980000e+00
    endloop
  endfacet
  facet normal  -0.000000e+00  0.000000e+00  1.000000e+00
    outer loop
      vertex  5.945557e+01  1.297315e+02  1.980000e+00
      vertex  4.444298e-01  1.297315e+02  1.980000e+00
      vertex  5.960711e+01  1.296071e+02  1.980000e+00
    endloop
  endfacet
  facet normal  0.000000e+00  0.000000e+00  9.999999e-01
    outer loop
      vertex  5.960711e+01  1.296071e+02  1.980000e+00
      vertex  4.444298e-01  1.297315e+02  1.980000e+00
      vertex  2.928932e-01  1.296071e+02  1.980000e+00
    endloop
  endfacet
  facet normal  -0.000000e+00  0.000000e+00  1.000000e+00
    outer loop
      vertex  5.960711e+01  1.296071e+02  1.980000e+00
      vertex  2.928932e-01  1.296071e+02  1.980000e+00
      vertex  5.973147e+01  1.294556e+02  1.980000e+00
    endloop
  endfacet
  facet normal  0.000000e+00  0.000000e+00  1.000000e+00
    outer loop
      vertex  5.973147e+01  1.294556e+02  1.980000e+00
      vertex  2.928932e-01  1.296071e+02  1.980000e+00
      vertex  1.685304e-01  1.294556e+02  1.980000e+00
    endloop
  endfacet
  facet normal  -0.000000e+00  0.000000e+00  1.000000e+00
    outer loop
      vertex  5.973147e+01  1.294556e+02  1.980000e+00
      vertex  1.685304e-01  1.294556e+02  1.980000e+00
      vertex  5.982388e+01  1.292827e+02  1.980000e+00
    endloop
  endfacet
  facet normal  0.000000e+00  0.000000e+00  1.000000e+00
    outer loop
      vertex  5.982388e+01  1.292827e+02  1.980000e+00
      vertex  1.685304e-01  1.294556e+02  1.980000e+00
      vertex  7.612047e-02  1.292827e+02  1.980000e+00
    endloop
  endfacet
  facet normal  -0.000000e+00  0.000000e+00  9.999999e-01
    outer loop
      vertex  5.982388e+01  1.292827e+02  1.980000e+00
      vertex  7.612047e-02  1.292827e+02  1.980000e+00
      vertex  5.988079e+01  1.290951e+02  1.980000e+00
    endloop
  endfacet
  facet normal  0.000000e+00  0.000000e+00  1.000000e+00
    outer loop
      vertex  5.988079e+01  1.290951e+02  1.980000e+00
      vertex  7.612047e-02  1.292827e+02  1.980000e+00
      vertex  1.921472e-02  1.290951e+02  1.980000e+00
    endloop
  endfacet
  facet normal  -0.000000e+00  0.000000e+00  1.000000e+00
    outer loop
      vertex  5.988079e+01  1.290951e+02  1.980000e+00
      vertex  1.921472e-02  1.290951e+02  1.980000e+00
      vertex  5.990000e+01  1.289000e+02  1.980000e+00
    endloop
  endfacet
  facet normal  0.000000e+00  0.000000e+00  1.000000e+00
    outer loop
      vertex  5.990000e+01  1.289000e+02  1.980000e+00
      vertex  1.921472e-02  1.290951e+02  1.980000e+00
      vertex  1.776357e-15  1.289000e+02  1.980000e+00
    endloop
  endfacet
  facet normal  -0.000000e+00  0.000000e+00  1.000000e+00
    outer loop
      vertex  5.990000e+01  1.289000e+02  1.980000e+00
      vertex  1.776357e-15  1.289000e+02  1.980000e+00
      vertex  5.990000e+01  1.000000e+00  1.980000e+00
    endloop
  endfacet
  facet normal  0.000000e+00  0.000000e+00  1.000000e+00
    outer loop
      vertex  5.990000e+01  1.000000e+00  1.980000e+00
      vertex  1.776357e-15  1.289000e+02  1.980000e+00
      vertex  1.776357e-15  1.000000e+00  1.980000e+00
    endloop
  endfacet
  facet normal  -0.000000e+00  0.000000e+00  1.000000e+00
    outer loop
      vertex  5.990000e+01  1.000000e+00  1.980000e+00
      vertex  1.776357e-15  1.000000e+00  1.980000e+00
      vertex  5.988079e+01  8.049097e-01  1.980000e+00
    endloop
  endfacet
  facet normal  0.000000e+00  0.000000e+00  1.000000e+00
    outer loop
      vertex  5.988079e+01  8.049097e-01  1.980000e+00
      vertex  1.776357e-15  1.000000e+00  1.980000e+00
      vertex  1.921472e-02  8.049097e-01  1.980000e+00
    endloop
  endfacet
  facet normal  -0.000000e+00  0.000000e+00  1.000000e+00
    outer loop
      vertex  5.988079e+01  8.049097e-01  1.980000e+00
      vertex  1.921472e-02  8.049097e-01  1.980000e+00
      vertex  5.982388e+01  6.173165e-01  1.980000e+00
    endloop
  endfacet
  facet normal  0.000000e+00  0.000000e+00  9.999999e-01
    outer loop
      vertex  5.982388e+01  6.173165e-01  1.980000e+00
      vertex  1.921472e-02  8.049097e-01  1.980000e+00
      vertex  7.612047e-02  6.173165e-01  1.980000e+00
    endloop
  endfacet
  facet normal  -0.000000e+00  0.000000e+00  1.000000e+00
    outer loop
      vertex  5.982388e+01  6.173165e-01  1.980000e+00
      vertex  7.612047e-02  6.173165e-01  1.980000e+00
      vertex  5.973147e+01  4.444298e-01  1.980000e+00
    endloop
  endfacet
  facet normal  0.000000e+00  0.000000e+00  1.000000e+00
    outer loop
      vertex  5.973147e+01  4.444298e-01  1.980000e+00
      vertex  7.612047e-02  6.173165e-01  1.980000e+00
      vertex  1.685304e-01  4.444298e-01  1.980000e+00
    endloop
  endfacet
  facet normal  -0.000000e+00  0.000000e+00  1.000000e+00
    outer loop
      vertex  5.973147e+01  4.444298e-01  1.980000e+00
      vertex  1.685304e-01  4.444298e-01  1.980000e+00
      vertex  5.960711e+01  2.928932e-01  1.980000e+00
    endloop
  endfacet
  facet normal  0.000000e+00  0.000000e+00  1.000000e+00
    outer loop
      vertex  5.960711e+01  2.928932e-01  1.980000e+00
      vertex  1.685304e-01  4.444298e-01  1.980000e+00
      vertex  2.928932e-01  2.928932e-01  1.980000e+00
    endloop
  endfacet
  facet normal  -0.000000e+00  0.000000e+00  9.999999e-01
    outer loop
      vertex  5.960711e+01  2.928932e-01  1.980000e+00
      vertex  2.928932e-01  2.928932e-01  1.980000e+00
      vertex  5.945557e+01  1.685304e-01  1.980000e+00
    endloop
  endfacet
  facet normal  0.000000e+00  0.000000e+00  1.000000e+00
    outer loop
      vertex  5.945557e+01  1.685304e-01  1.980000e+00
      vertex  2.928932e-01  2.928932e-01  1.980000e+00
      vertex  4.444298e-01  1.685304e-01  1.980000e+00
    endloop
  endfacet
  facet normal  -0.000000e+00  0.000000e+00  1.000000e+00
    outer loop
      vertex  5.945557e+01  1.685304e-01  1.980000e+00
      vertex  4.444298e-01  1.685304e-01  1.980000e+00
      vertex  5.928268e+01  7.612047e-02  1.980000e+00
    endloop
  endfacet
  facet normal  0.000000e+00  0.000000e+00  1.000000e+00
    outer loop
      vertex  5.928268e+01  7.612047e-02  1.980000e+00
      vertex  4.444298e-01  1.685304e-01  1.980000e+00
      vertex  6.173165e-01  7.612047e-02  1.980000e+00
    endloop
  endfacet
  facet normal  -0.000000e+00  0.000000e+00  9.999999e-01
    outer loop
      vertex  5.928268e+01  7.612047e-02  1.980000e+00
      vertex  6.173165e-01  7.612047e-02  1.980000e+00
      vertex  5.909509e+01  1.921472e-02  1.980000e+00
    endloop
  endfacet
  facet normal  0.000000e+00  0.000000e+00  1.000000e+00
    outer loop
      vertex  5.909509e+01  1.921472e-02  1.980000e+00
      vertex  6.173165e-01  7.612047e-02  1.980000e+00
      vertex  8.049097e-01  1.921472e-02  1.980000e+00
    endloop
  endfacet
  facet normal  -0.000000e+00  0.000000e+00  1.000000e+00
    outer loop
      vertex  5.909509e+01  1.921472e-02  1.980000e+00
      vertex  8.049097e-01  1.921472e-02  1.980000e+00
      vertex  5.890000e+01  0.000000e+00  1.980000e+00
    endloop
  endfacet
  facet normal  0.000000e+00  0.000000e+00  1.000000e+00
    outer loop
      vertex  5.890000e+01  0.000000e+00  1.980000e+00
      vertex  8.049097e-01  1.921472e-02  1.980000e+00
      vertex  1.000000e+00  0.000000e+00  1.980000e+00
    endloop
  endfacet
  facet normal  0.000000e+00  0.000000e+00 -1.000000e+00
    outer loop
      vertex  5.990000e+01  1.289000e+02  0.000000e+00
      vertex  1.921472e-02  1.290951e+02  0.000000e+00
      vertex  5.988079e+01  1.290951e+02  0.000000e+00
    endloop
  endfacet
  facet normal  0.000000e+00  0.000000e+00 -1.000000e+00
    outer loop
      vertex  5.988079e+01  1.290951e+02  0.000000e+00
      vertex  1.921472e-02  1.290951e+02  0.000000e+00
      vertex  7.612047e-02  1.292827e+02  0.000000e+00
    endloop
  endfacet
  facet normal  0.000000e+00  0.000000e+00 -9.999999e-01
    outer loop
      vertex  5.988079e+01  1.290951e+02  0.000000e+00
      vertex  7.612047e-02  1.292827e+02  0.000000e+00
      vertex  5.982388e+01  1.292827e+02  0.000000e+00
    endloop
  endfacet
  facet normal  0.000000e+00  0.000000e+00 -1.000000e+00
    outer loop
      vertex  5.982388e+01  1.292827e+02  0.000000e+00
      vertex  7.612047e-02  1.292827e+02  0.000000e+00
      vertex  1.685304e-01  1.294556e+02  0.000000e+00
    endloop
  endfacet
  facet normal  0.000000e+00  0.000000e+00 -1.000000e+00
    outer loop
      vertex  5.982388e+01  1.292827e+02  0.000000e+00
      vertex  1.685304e-01  1.294556e+02  0.000000e+00
      vertex  5.973147e+01  1.294556e+02  0.000000e+00
    endloop
  endfacet
  facet normal  0.000000e+00  0.000000e+00 -1.000000e+00
    outer loop
      vertex  5.973147e+01  1.294556e+02  0.000000e+00
      vertex  1.685304e-01  1.294556e+02  0.000000e+00
      vertex  2.928932e-01  1.296071e+02  0.000000e+00
    endloop
  endfacet
  facet normal  0.000000e+00  0.000000e+00 -1.000000e+00
    outer loop
      vertex  5.973147e+01  1.294556e+02  0.000000e+00
      vertex  2.928932e-01  1.296071e+02  0.000000e+00
      vertex  5.960711e+01  1.296071e+02  0.000000e+00
    endloop
  endfacet
  facet normal  0.000000e+00  0.000000e+00 -9.999999e-01
    outer loop
      vertex  5.960711e+01  1.296071e+02  0.000000e+00
      vertex  2.928932e-01  1.296071e+02  0.000000e+00
      vertex  4.444298e-01  1.297315e+02  0.000000e+00
    endloop
  endfacet
  facet normal  0.000000e+00  0.000000e+00 -1.000000e+00
    outer loop
      vertex  5.960711e+01  1.296071e+02  0.000000e+00
      vertex  4.444298e-01  1.297315e+02  0.000000e+00
      vertex  5.945557e+01  1.297315e+02  0.000000e+00
    endloop
  endfacet
  facet normal  0.000000e+00  0.000000e+00 -1.000000e+00
    outer loop
      vertex  5.945557e+01  1.297315e+02  0.000000e+00
      vertex  4.444298e-01  1.297315e+02  0.000000e+00
      vertex  6.173165e-01  1.298239e+02  0.000000e+00
    endloop
  endfacet
  facet normal  0.000000e+00  0.000000e+00 -1.000000e+00
    outer loop
      vertex  5.945557e+01  1.297315e+02  0.000000e+00
      vertex  6.173165e-01  1.298239e+02  0.000000e+00
      vertex  5.928268e+01  1.298239e+02  0.000000e+00
    endloop
  endfacet
  facet normal  0.000000e+00  0.000000e+00 -1.000000e+00
    outer loop
      vertex  5.928268e+01  1.298239e+02  0.000000e+00
      vertex  6.173165e-01  1.298239e+02  0.000000e+00
      vertex  8.049097e-01  1.298808e+02  0.000000e+00
    endloop
  endfacet
  facet normal  0.000000e+00  0.000000e+00 -1.000000e+00
    outer loop
      vertex  5.928268e+01  1.298239e+02  0.000000e+00
      vertex  8.049097e-01  1.298808e+02  0.000000e+00
      vertex  5.909509e+01  1.298808e+02  0.000000e+00
    endloop
  endfacet
  facet normal  0.000000e+00  0.000000e+00 -1.000000e+00
    outer loop
      vertex  5.909509e+01  1.298808e+02  0.000000e+00
      vertex  8.049097e-01  1.298808e+02  0.000000e+00
      vertex  1.000000e+00  1.299000e+02  0.000000e+00
    endloop
  endfacet
  facet normal  0.000000e+00  0.000000e+00 -1.000000e+00
    outer loop
      vertex  5.909509e+01  1.298808e+02  0.000000e+00
      vertex  1.000000e+00  1.299000e+02  0.000000e+00
      vertex  5.890000e+01  1.299000e+02  0.000000e+00
    endloop
  endfacet
  facet normal  0.000000e+00  0.000000e+00 -1.000000e+00
    outer loop
      vertex  1.921472e-02  1.290951e+02  0.000000e+00
      vertex  5.990000e+01  1.289000e+02  0.000000e+00
      vertex  1.776357e-15  1.289000e+02  0.000000e+00
    endloop
  endfacet
  facet normal  0.000000e+00  0.000000e+00 -1.000000e+00
    outer loop
      vertex  1.776357e-15  1.289000e+02  0.000000e+00
      vertex  5.990000e+01  1.289000e+02  0.000000e+00
      vertex  5.990000e+01  1.000000e+00  0.000000e+00
    endloop
  endfacet
  facet normal  0.000000e+00  0.000000e+00 -1.000000e+00
    outer loop
      vertex  1.776357e-15  1.289000e+02  0.000000e+00
      vertex  5.990000e+01  1.000000e+00  0.000000e+00
      vertex  1.776357e-15  1.000000e+00  0.000000e+00
    endloop
  endfacet
  facet normal  0.000000e+00  0.000000e+00 -1.000000e+00
    outer loop
      vertex  1.776357e-15  1.000000e+00  0.000000e+00
      vertex  5.990000e+01  1.000000e+00  0.000000e+00
      vertex  5.988079e+01  8.049097e-01  0.000000e+00
    endloop
  endfacet
  facet normal  0.000000e+00  0.000000e+00 -1.000000e+00
    outer loop
      vertex  1.776357e-15  1.000000e+00  0.000000e+00
      vertex  5.988079e+01  8.049097e-01  0.000000e+00
      vertex  1.921472e-02  8.049097e-01  0.000000e+00
    endloop
  endfacet
  facet normal  0.000000e+00  0.000000e+00 -1.000000e+00
    outer loop
      vertex  1.921472e-02  8.049097e-01  0.000000e+00
      vertex  5.988079e+01  8.049097e-01  0.000000e+00
      vertex  5.982388e+01  6.173165e-01  0.000000e+00
    endloop
  endfacet
  facet normal  0.000000e+00  0.000000e+00 -9.999999e-01
    outer loop
      vertex  1.921472e-02  8.049097e-01  0.000000e+00
      vertex  5.982388e+01  6.173165e-01  0.000000e+00
      vertex  7.612047e-02  6.173165e-01  0.000000e+00
    endloop
  endfacet
  facet normal  0.000000e+00  0.000000e+00 -1.000000e+00
    outer loop
      vertex  7.612047e-02  6.173165e-01  0.000000e+00
      vertex  5.982388e+01  6.173165e-01  0.000000e+00
      vertex  5.973147e+01  4.444298e-01  0.000000e+00
    endloop
  endfacet
  facet normal  0.000000e+00  0.000000e+00 -1.000000e+00
    outer loop
      vertex  7.612047e-02  6.173165e-01  0.000000e+00
      vertex  5.973147e+01  4.444298e-01  0.000000e+00
      vertex  1.685304e-01  4.444298e-01  0.000000e+00
    endloop
  endfacet
  facet normal  0.000000e+00  0.000000e+00 -1.000000e+00
    outer loop
      vertex  1.685304e-01  4.444298e-01  0.000000e+00
      vertex  5.973147e+01  4.444298e-01  0.000000e+00
      vertex  5.960711e+01  2.928932e-01  0.000000e+00
    endloop
  endfacet
  facet normal  0.000000e+00  0.000000e+00 -1.000000e+00
    outer loop
      vertex  1.685304e-01  4.444298e-01  0.000000e+00
      vertex  5.960711e+01  2.928932e-01  0.000000e+00
      vertex  2.928932e-01  2.928932e-01  0.000000e+00
    endloop
  endfacet
  facet normal  0.000000e+00  0.000000e+00 -9.999999e-01
    outer loop
      vertex  2.928932e-01  2.928932e-01  0.000000e+00
      vertex  5.960711e+01  2.928932e-01  0.000000e+00
      vertex  5.945557e+01  1.685304e-01  0.000000e+00
    endloop
  endfacet
  facet normal  0.000000e+00  0.000000e+00 -1.000000e+00
    outer loop
      vertex  2.928932e-01  2.928932e-01  0.000000e+00
      vertex  5.945557e+01  1.685304e-01  0.000000e+00
      vertex  4.444298e-01  1.685304e-01  0.000000e+00
    endloop
  endfacet
  facet normal  0.000000e+00  0.000000e+00 -1.000000e+00
    outer loop
      vertex  4.444298e-01  1.685304e-01  0.000000e+00
      vertex  5.945557e+01  1.685304e-01  0.000000e+00
      vertex  5.928268e+01  7.612047e-02  0.000000e+00
    endloop
  endfacet
  facet normal  0.000000e+00  0.000000e+00 -1.000000e+00
    outer loop
      vertex  4.444298e-01  1.685304e-01  0.000000e+00
      vertex  5.928268e+01  7.612047e-02  0.000000e+00
      vertex  6.173165e-01  7.612047e-02  0.000000e+00
    endloop
  endfacet
  facet normal  0.000000e+00  0.000000e+00 -9.999999e-01
    outer loop
      vertex  6.173165e-01  7.612047e-02  0.000000e+00
      vertex  5.928268e+01  7.612047e-02  0.000000e+00
      vertex  5.909509e+01  1.921472e-02  0.000000e+00
    endloop
  endfacet
  facet normal  0.000000e+00  0.000000e+00 -1.000000e+00
    outer loop
      vertex  6.173165e-01  7.612047e-02  0.000000e+00
      vertex  5.909509e+01  1.921472e-02  0.000000e+00
      vertex  8.049097e-01  1.921472e-02  0.000000e+00
    endloop
  endfacet
  facet normal  0.000000e+00  0.000000e+00 -1.000000e+00
    outer loop
      vertex  8.049097e-01  1.921472e-02  0.000000e+00
      vertex  5.909509e+01  1.921472e-02  0.000000e+00
      vertex  5.890000e+01  0.000000e+00  0.000000e+00
    endloop
  endfacet
  facet normal  0.000000e+00  0.000000e+00 -1.000000e+00
    outer loop
      vertex  8.049097e-01  1.921472e-02  0.000000e+00
      vertex  5.890000e+01  0.000000e+00  0.000000e+00
      vertex  1.000000e+00  0.000000e+00  0.000000e+00
    endloop
  endfacet
  facet normal  0.000000e+00 -1.000000e+00  0.000000e+00
    outer loop
      vertex  5.890000e+01  0.000000e+00  1.980000e+00
      vertex  1.000000e+00  0.000000e+00  1.980000e+00
      vertex  5.890000e+01  0.000000e+00  0.000000e+00
    endloop
  endfacet
  facet normal  0.000000e+00 -1.000000e+00  0.000000e+00
    outer loop
      vertex  5.890000e+01  0.000000e+00  0.000000e+00
      vertex  1.000000e+00  0.000000e+00  1.980000e+00
      vertex  1.000000e+00  0.000000e+00  0.000000e+00
    endloop
  endfacet
  facet normal -1.000000e+00  -0.000000e+00  0.000000e+00
    outer loop
      vertex  1.776357e-15  1.000000e+00  1.980000e+00
      vertex  1.776357e-15  1.289000e+02  1.980000e+00
      vertex  1.776357e-15  1.000000e+00  0.000000e+00
    endloop
  endfacet
  facet normal -1.000000e+00  0.000000e+00  0.000000e+00
    outer loop
      vertex  1.776357e-15  1.000000e+00  0.000000e+00
      vertex  1.776357e-15  1.289000e+02  1.980000e+00
      vertex  1.776357e-15  1.289000e+02  0.000000e+00
    endloop
  endfacet
  facet normal -9.801716e-02 -9.951848e-01  -0.000000e+00
    outer loop
      vertex  1.000000e+00  0.000000e+00  0.000000e+00
      vertex  1.000000e+00  0.000000e+00  1.980000e+00
      vertex  8.049097e-01  1.921472e-02  0.000000e+00
    endloop
  endfacet
  facet normal -9.801716e-02 -9.951848e-01  0.000000e+00
    outer loop
      vertex  8.049097e-01  1.921472e-02  0.000000e+00
      vertex  1.000000e+00  0.000000e+00  1.980000e+00
      vertex  8.049097e-01  1.921472e-02  1.980000e+00
    endloop
  endfacet
  facet normal -2.902846e-01 -9.569404e-01  -0.000000e+00
    outer loop
      vertex  8.049097e-01  1.921472e-02  0.000000e+00
      vertex  8.049097e-01  1.921472e-02  1.980000e+00
      vertex  6.173165e-01  7.612047e-02  0.000000e+00
    endloop
  endfacet
  facet normal -2.902846e-01 -9.569404e-01  0.000000e+00
    outer loop
      vertex  6.173165e-01  7.612047e-02  0.000000e+00
      vertex  8.049097e-01  1.921472e-02  1.980000e+00
      vertex  6.173165e-01  7.612047e-02  1.980000e+00
    endloop
  endfacet
  facet normal -4.713968e-01 -8.819213e-01  -0.000000e+00
    outer loop
      vertex  6.173165e-01  7.612047e-02  0.000000e+00
      vertex  6.173165e-01  7.612047e-02  1.980000e+00
      vertex  4.444298e-01  1.685304e-01  0.000000e+00
    endloop
  endfacet
  facet normal -4.713968e-01 -8.819213e-01  0.000000e+00
    outer loop
      vertex  4.444298e-01  1.685304e-01  0.000000e+00
      vertex  6.173165e-01  7.612047e-02  1.980000e+00
      vertex  4.444298e-01  1.685304e-01  1.980000e+00
    endloop
  endfacet
  facet normal -6.343934e-01 -7.730104e-01  -0.000000e+00
    outer loop
      vertex  4.444298e-01  1.685304e-01  0.000000e+00
      vertex  4.444298e-01  1.685304e-01  1.980000e+00
      vertex  2.928932e-01  2.928932e-01  0.000000e+00
    endloop
  endfacet
  facet normal -6.343934e-01 -7.730104e-01  0.000000e+00
    outer loop
      vertex  2.928932e-01  2.928932e-01  0.000000e+00
      vertex  4.444298e-01  1.685304e-01  1.980000e+00
      vertex  2.928932e-01  2.928932e-01  1.980000e+00
    endloop
  endfacet
  facet normal -7.730104e-01 -6.343934e-01  -0.000000e+00
    outer loop
      vertex  2.928932e-01  2.928932e-01  0.000000e+00
      vertex  2.928932e-01  2.928932e-01  1.980000e+00
      vertex  1.685304e-01  4.444298e-01  0.000000e+00
    endloop
  endfacet
  facet normal -7.730104e-01 -6.343934e-01  0.000000e+00
    outer loop
      vertex  1.685304e-01  4.444298e-01  0.000000e+00
      vertex  2.928932e-01  2.928932e-01  1.980000e+00
      vertex  1.685304e-01  4.444298e-01  1.980000e+00
    endloop
  endfacet
  facet normal -8.819213e-01 -4.713968e-01  -0.000000e+00
    outer loop
      vertex  1.685304e-01  4.444298e-01  0.000000e+00
      vertex  1.685304e-01  4.444298e-01  1.980000e+00
      vertex  7.612047e-02  6.173165e-01  0.000000e+00
    endloop
  endfacet
  facet normal -8.819213e-01 -4.713968e-01  0.000000e+00
    outer loop
      vertex  7.612047e-02  6.173165e-01  0.000000e+00
      vertex  1.685304e-01  4.444298e-01  1.980000e+00
      vertex  7.612047e-02  6.173165e-01  1.980000e+00
    endloop
  endfacet
  facet normal -9.569404e-01 -2.902846e-01  -0.000000e+00
    outer loop
      vertex  7.612047e-02  6.173165e-01  0.000000e+00
      vertex  7.612047e-02  6.173165e-01  1.980000e+00
      vertex  1.921472e-02  8.049097e-01  0.000000e+00
    endloop
  endfacet
  facet normal -9.569404e-01 -2.902846e-01  0.000000e+00
    outer loop
      vertex  1.921472e-02  8.049097e-01  0.000000e+00
      vertex  7.612047e-02  6.173165e-01  1.980000e+00
      vertex  1.921472e-02  8.049097e-01  1.980000e+00
    endloop
  endfacet
  facet normal -9.951848e-01 -9.801716e-02  -0.000000e+00
    outer loop
      vertex  1.921472e-02  8.049097e-01  0.000000e+00
      vertex  1.921472e-02  8.049097e-01  1.980000e+00
      vertex  1.776357e-15  1.000000e+00  0.000000e+00
    endloop
  endfacet
  facet normal -9.951848e-01 -9.801716e-02  0.000000e+00
    outer loop
      vertex  1.776357e-15  1.000000e+00  0.000000e+00
      vertex  1.921472e-02  8.049097e-01  1.980000e+00
      vertex  1.776357e-15  1.000000e+00  1.980000e+00
    endloop
  endfacet
  facet normal  1.000000e+00  -0.000000e+00  0.000000e+00
    outer loop
      vertex  5.990000e+01  1.289000e+02  1.980000e+00
      vertex  5.990000e+01  1.000000e+00  1.980000e+00
      vertex  5.990000e+01  1.289000e+02  0.000000e+00
    endloop
  endfacet
  facet normal  1.000000e+00  0.000000e+00  0.000000e+00
    outer loop
      vertex  5.990000e+01  1.289000e+02  0.000000e+00
      vertex  5.990000e+01  1.000000e+00  1.980000e+00
      vertex  5.990000e+01  1.000000e+00  0.000000e+00
    endloop
  endfacet
  facet normal  9.951848e-01 -9.801670e-02  0.000000e+00
    outer loop
      vertex  5.990000e+01  1.000000e+00  0.000000e+00
      vertex  5.990000e+01  1.000000e+00  1.980000e+00
      vertex  5.988079e+01  8.049097e-01  0.000000e+00
    endloop
  endfacet
  facet normal  9.951848e-01 -9.801670e-02  0.000000e+00
    outer loop
      vertex  5.988079e+01  8.049097e-01  0.000000e+00
      vertex  5.990000e+01  1.000000e+00  1.980000e+00
      vertex  5.988079e+01  8.049097e-01  1.980000e+00
    endloop
  endfacet
  facet normal  9.569377e-01 -2.902935e-01  0.000000e+00
    outer loop
      vertex  5.988079e+01  8.049097e-01  0.000000e+00
      vertex  5.988079e+01  8.049097e-01  1.980000e+00
      vertex  5.982388e+01  6.173165e-01  0.000000e+00
    endloop
  endfacet
  facet normal  9.569377e-01 -2.902935e-01  0.000000e+00
    outer loop
      vertex  5.982388e+01  6.173165e-01  0.000000e+00
      vertex  5.988079e+01  8.049097e-01  1.980000e+00
      vertex  5.982388e+01  6.173165e-01  1.980000e+00
    endloop
  endfacet
  facet normal  8.819189e-01 -4.714012e-01  0.000000e+00
    outer loop
      vertex  5.982388e+01  6.173165e-01  0.000000e+00
      vertex  5.982388e+01  6.173165e-01  1.980000e+00
      vertex  5.973147e+01  4.444298e-01  0.000000e+00
    endloop
  endfacet
  facet normal  8.819189e-01 -4.714012e-01  0.000000e+00
    outer loop
      vertex  5.973147e+01  4.444298e-01  0.000000e+00
      vertex  5.982388e+01  6.173165e-01  1.980000e+00
      vertex  5.973147e+01  4.444298e-01  1.980000e+00
    endloop
  endfacet
  facet normal  7.730101e-01 -6.343937e-01  0.000000e+00
    outer loop
      vertex  5.973147e+01  4.444298e-01  0.000000e+00
      vertex  5.973147e+01  4.444298e-01  1.980000e+00
      vertex  5.960711e+01  2.928932e-01  0.000000e+00
    endloop
  endfacet
  facet normal  7.730101e-01 -6.343937e-01  0.000000e+00
    outer loop
      vertex  5.960711e+01  2.928932e-01  0.000000e+00
      vertex  5.973147e+01  4.444298e-01  1.980000e+00
      vertex  5.960711e+01  2.928932e-01  1.980000e+00
    endloop
  endfacet
  facet normal  6.343971e-01 -7.730073e-01  0.000000e+00
    outer loop
      vertex  5.960711e+01  2.928932e-01  0.000000e+00
      vertex  5.960711e+01  2.928932e-01  1.980000e+00
      vertex  5.945557e+01  1.685304e-01  0.000000e+00
    endloop
  endfacet
  facet normal  6.343971e-01 -7.730073e-01  0.000000e+00
    outer loop
      vertex  5.945557e+01  1.685304e-01  0.000000e+00
      vertex  5.960711e+01  2.928932e-01  1.980000e+00
      vertex  5.945557e+01  1.685304e-01  1.980000e+00
    endloop
  endfacet
  facet normal  4.713987e-01 -8.819202e-01  0.000000e+00
    outer loop
      vertex  5.945557e+01  1.685304e-01  0.000000e+00
      vertex  5.945557e+01  1.685304e-01  1.980000e+00
      vertex  5.928268e+01  7.612047e-02  0.000000e+00
    endloop
  endfacet
  facet normal  4.713987e-01 -8.819202e-01  0.000000e+00
    outer loop
      vertex  5.928268e+01  7.612047e-02  0.000000e+00
      vertex  5.945557e+01  1.685304e-01  1.980000e+00
      vertex  5.928268e+01  7.612047e-02  1.980000e+00
    endloop
  endfacet
  facet normal  2.902815e-01 -9.569413e-01  0.000000e+00
    outer loop
      vertex  5.928268e+01  7.612047e-02  0.000000e+00
      vertex  5.928268e+01  7.612047e-02  1.980000e+00
      vertex  5.909509e+01  1.921472e-02  0.000000e+00
    endloop
  endfacet
  facet normal  2.902815e-01 -9.569413e-01  0.000000e+00
    outer loop
      vertex  5.909509e+01  1.921472e-02  0.000000e+00
      vertex  5.928268e+01  7.612047e-02  1.980000e+00
      vertex  5.909509e+01  1.921472e-02  1.980000e+00
    endloop
  endfacet
  facet normal  9.801858e-02 -9.951846e-01  0.000000e+00
    outer loop
      vertex  5.909509e+01  1.921472e-02  0.000000e+00
      vertex  5.909509e+01  1.921472e-02  1.980000e+00
      vertex  5.890000e+01  0.000000e+00  0.000000e+00
    endloop
  endfacet
  facet normal  9.801858e-02 -9.951846e-01  0.000000e+00
    outer loop
      vertex  5.890000e+01  0.000000e+00  0.000000e+00
      vertex  5.909509e+01  1.921472e-02  1.980000e+00
      vertex  5.890000e+01  0.000000e+00  1.980000e+00
    endloop
  endfacet
  facet normal  0.000000e+00  1.000000e+00  0.000000e+00
    outer loop
      vertex  1.000000e+00  1.299000e+02  1.980000e+00
      vertex  5.890000e+01  1.299000e+02  1.980000e+00
      vertex  1.000000e+00  1.299000e+02  0.000000e+00
    endloop
  endfacet
  facet normal  0.000000e+00  1.000000e+00  0.000000e+00
    outer loop
      vertex  1.000000e+00  1.299000e+02  0.000000e+00
      vertex  5.890000e+01  1.299000e+02  1.980000e+00
      vertex  5.890000e+01  1.299000e+02  0.000000e+00
    endloop
  endfacet
  facet normal -9.951851e-01  9.801289e-02  0.000000e+00
    outer loop
      vertex  1.776357e-15  1.289000e+02  0.000000e+00
      vertex  1.776357e-15  1.289000e+02  1.980000e+00
      vertex  1.921472e-02  1.290951e+02  0.000000e+00
    endloop
  endfacet
  facet normal -9.951851e-01  9.801289e-02  0.000000e+00
    outer loop
      vertex  1.921472e-02  1.290951e+02  0.000000e+00
      vertex  1.776357e-15  1.289000e+02  1.980000e+00
      vertex  1.921472e-02  1.290951e+02  1.980000e+00
    endloop
  endfacet
  facet normal -9.569396e-01  2.902869e-01  0.000000e+00
    outer loop
      vertex  1.921472e-02  1.290951e+02  0.000000e+00
      vertex  1.921472e-02  1.290951e+02  1.980000e+00
      vertex  7.612047e-02  1.292827e+02  0.000000e+00
    endloop
  endfacet
  facet normal -9.569396e-01  2.902869e-01  0.000000e+00
    outer loop
      vertex  7.612047e-02  1.292827e+02  0.000000e+00
      vertex  1.921472e-02  1.290951e+02  1.980000e+00
      vertex  7.612047e-02  1.292827e+02  1.980000e+00
    endloop
  endfacet
  facet normal -8.819159e-01  4.714068e-01  0.000000e+00
    outer loop
      vertex  7.612047e-02  1.292827e+02  0.000000e+00
      vertex  7.612047e-02  1.292827e+02  1.980000e+00
      vertex  1.685304e-01  1.294556e+02  0.000000e+00
    endloop
  endfacet
  facet normal -8.819159e-01  4.714068e-01  0.000000e+00
    outer loop
      vertex  1.685304e-01  1.294556e+02  0.000000e+00
      vertex  7.612047e-02  1.292827e+02  1.980000e+00
      vertex  1.685304e-01  1.294556e+02  1.980000e+00
    endloop
  endfacet
  facet normal -7.730073e-01  6.343971e-01  0.000000e+00
    outer loop
      vertex  1.685304e-01  1.294556e+02  0.000000e+00
      vertex  1.685304e-01  1.294556e+02  1.980000e+00
      vertex  2.928932e-01  1.296071e+02  0.000000e+00
    endloop
  endfacet
  facet normal -7.730073e-01  6.343971e-01  0.000000e+00
    outer loop
      vertex  2.928932e-01  1.296071e+02  0.000000e+00
      vertex  1.685304e-01  1.294556e+02  1.980000e+00
      vertex  2.928932e-01  1.296071e+02  1.980000e+00
    endloop
  endfacet
  facet normal -6.344286e-01  7.729815e-01  0.000000e+00
    outer loop
      vertex  2.928932e-01  1.296071e+02  0.000000e+00
      vertex  2.928932e-01  1.296071e+02  1.980000e+00
      vertex  4.444298e-01  1.297315e+02  0.000000e+00
    endloop
  endfacet
  facet normal -6.344286e-01  7.729815e-01  0.000000e+00
    outer loop
      vertex  4.444298e-01  1.297315e+02  0.000000e+00
      vertex  2.928932e-01  1.296071e+02  1.980000e+00
      vertex  4.444298e-01  1.297315e+02  1.980000e+00
    endloop
  endfacet
  facet normal -4.713861e-01  8.819270e-01  0.000000e+00
    outer loop
      vertex  4.444298e-01  1.297315e+02  0.000000e+00
      vertex  4.444298e-01  1.297315e+02  1.980000e+00
      vertex  6.173165e-01  1.298239e+02  0.000000e+00
    endloop
  endfacet
  facet normal -4.713861e-01  8.819270e-01  0.000000e+00
    outer loop
      vertex  6.173165e-01  1.298239e+02  0.000000e+00
      vertex  4.444298e-01  1.297315e+02  1.980000e+00
      vertex  6.173165e-01  1.298239e+02  1.980000e+00
    endloop
  endfacet
  facet normal -2.902579e-01  9.569485e-01  0.000000e+00
    outer loop
      vertex  6.173165e-01  1.298239e+02  0.000000e+00
      vertex  6.173165e-01  1.298239e+02  1.980000e+00
      vertex  8.049097e-01  1.298808e+02  0.000000e+00
    endloop
  endfacet
  facet normal -2.902579e-01  9.569485e-01  0.000000e+00
    outer loop
      vertex  8.049097e-01  1.298808e+02  0.000000e+00
      vertex  6.173165e-01  1.298239e+02  1.980000e+00
      vertex  8.049097e-01  1.298808e+02  1.980000e+00
    endloop
  endfacet
  facet normal -9.799743e-02  9.951866e-01  0.000000e+00
    outer loop
      vertex  8.049097e-01  1.298808e+02  0.000000e+00
      vertex  8.049097e-01  1.298808e+02  1.980000e+00
      vertex  1.000000e+00  1.299000e+02  0.000000e+00
    endloop
  endfacet
  facet normal -9.799743e-02  9.951866e-01  0.000000e+00
    outer loop
      vertex  1.000000e+00  1.299000e+02  0.000000e+00
      vertex  8.049097e-01  1.298808e+02  1.980000e+00
      vertex  1.000000e+00  1.299000e+02  1.980000e+00
    endloop
  endfacet
  facet normal  9.799886e-02  9.951865e-01  0.000000e+00
    outer loop
      vertex  5.890000e+01  1.299000e+02  0.000000e+00
      vertex  5.890000e+01  1.299000e+02  1.980000e+00
      vertex  5.909509e+01  1.298808e+02  0.000000e+00
    endloop
  endfacet
  facet normal  9.799886e-02  9.951865e-01  -0.000000e+00
    outer loop
      vertex  5.909509e+01  1.298808e+02  0.000000e+00
      vertex  5.890000e+01  1.299000e+02  1.980000e+00
      vertex  5.909509e+01  1.298808e+02  1.980000e+00
    endloop
  endfacet
  facet normal  2.902547e-01  9.569494e-01  0.000000e+00
    outer loop
      vertex  5.909509e+01  1.298808e+02  0.000000e+00
      vertex  5.909509e+01  1.298808e+02  1.980000e+00
      vertex  5.928268e+01  1.298239e+02  0.000000e+00
    endloop
  endfacet
  facet normal  2.902547e-01  9.569494e-01  -0.000000e+00
    outer loop
      vertex  5.928268e+01  1.298239e+02  0.000000e+00
      vertex  5.909509e+01  1.298808e+02  1.980000e+00
      vertex  5.928268e+01  1.298239e+02  1.980000e+00
    endloop
  endfacet
  facet normal  4.713880e-01  8.819260e-01  0.000000e+00
    outer loop
      vertex  5.928268e+01  1.298239e+02  0.000000e+00
      vertex  5.928268e+01  1.298239e+02  1.980000e+00
      vertex  5.945557e+01  1.297315e+02  0.000000e+00
    endloop
  endfacet
  facet normal  4.713880e-01  8.819260e-01  -0.000000e+00
    outer loop
      vertex  5.945557e+01  1.297315e+02  0.000000e+00
      vertex  5.928268e+01  1.298239e+02  1.980000e+00
      vertex  5.945557e+01  1.297315e+02  1.980000e+00
    endloop
  endfacet
  facet normal  6.344323e-01  7.729784e-01  0.000000e+00
    outer loop
      vertex  5.945557e+01  1.297315e+02  0.000000e+00
      vertex  5.945557e+01  1.297315e+02  1.980000e+00
      vertex  5.960711e+01  1.296071e+02  0.000000e+00
    endloop
  endfacet
  facet normal  6.344323e-01  7.729784e-01  -0.000000e+00
    outer loop
      vertex  5.960711e+01  1.296071e+02  0.000000e+00
      vertex  5.945557e+01  1.297315e+02  1.980000e+00
      vertex  5.960711e+01  1.296071e+02  1.980000e+00
    endloop
  endfacet
  facet normal  7.730071e-01  6.343974e-01  0.000000e+00
    outer loop
      vertex  5.960711e+01  1.296071e+02  0.000000e+00
      vertex  5.960711e+01  1.296071e+02  1.980000e+00
      vertex  5.973147e+01  1.294556e+02  0.000000e+00
    endloop
  endfacet
  facet normal  7.730071e-01  6.343974e-01  -0.000000e+00
    outer loop
      vertex  5.973147e+01  1.294556e+02  0.000000e+00
      vertex  5.960711e+01  1.296071e+02  1.980000e+00
      vertex  5.973147e+01  1.294556e+02  1.980000e+00
    endloop
  endfacet
  facet normal  8.819135e-01  4.714112e-01  0.000000e+00
    outer loop
      vertex  5.973147e+01  1.294556e+02  0.000000e+00
      vertex  5.973147e+01  1.294556e+02  1.980000e+00
      vertex  5.982388e+01  1.292827e+02  0.000000e+00
    endloop
  endfacet
  facet normal  8.819135e-01  4.714112e-01  -0.000000e+00
    outer loop
      vertex  5.982388e+01  1.292827e+02  0.000000e+00
      vertex  5.973147e+01  1.294556e+02  1.980000e+00
      vertex  5.982388e+01  1.292827e+02  1.980000e+00
    endloop
  endfacet
  facet normal  9.569369e-01  2.902957e-01  0.000000e+00
    outer loop
      vertex  5.982388e+01  1.292827e+02  0.000000e+00
      vertex  5.982388e+01  1.292827e+02  1.980000e+00
      vertex  5.988079e+01  1.290951e+02  0.000000e+00
    endloop
  endfacet
  facet normal  9.569369e-01  2.902957e-01  -0.000000e+00
    outer loop
      vertex  5.988079e+01  1.290951e+02  0.000000e+00
      vertex  5.982388e+01  1.292827e+02  1.980000e+00
      vertex  5.988079e+01  1.290951e+02  1.980000e+00
    endloop
  endfacet
  facet normal  9.951852e-01  9.801243e-02  0.000000e+00
    outer loop
      vertex  5.988079e+01  1.290951e+02  0.000000e+00
      vertex  5.988079e+01  1.290951e+02  1.980000e+00
      vertex  5.990000e+01  1.289000e+02  0.000000e+00
    endloop
  endfacet
  facet normal  9.951852e-01  9.801243e-02  -0.000000e+00
    outer loop
      vertex  5.990000e+01  1.289000e+02  0.000000e+00
      vertex  5.988079e+01  1.290951e+02  1.980000e+00
      vertex  5.990000e+01  1.289000e+02  1.980000e+00
    endloop
  endfacet
endsolid CATIA STL
